<?xml version="1.0" standalone="no"?><!DOCTYPE svg PUBLIC "-//W3C//DTD SVG 1.1//EN" "http://www.w3.org/Graphics/SVG/1.1/DTD/svg11.dtd"><svg t="1685513892677" class="icon" viewBox="0 0 1024 1024" version="1.1" xmlns="http://www.w3.org/2000/svg" p-id="5444" id="mx_n_1685513892678" width="32" height="32" xmlns:xlink="http://www.w3.org/1999/xlink"><path d="M535.722667 132.266667l248.832 249.059555c21.333333 21.333333 21.333333 55.921778 0 77.255111l-148.992 148.992c-21.333333 21.333333-55.950222 21.333333-77.283556 0l-77.169778-77.141333L102.656 909.454222a59.534222 59.534222 0 1 1-84.195556-84.195555l378.737778-378.993778-87.608889-87.808a54.670222 54.670222 0 0 1 0-77.226667l148.821334-148.963555c21.333333-21.333333 55.950222-21.333333 77.312 0zM192.654222 273.066667a48.042667 48.042667 0 0 0 68.209778 0l189.383111-189.326223a48.355556 48.355556 0 0 0 0-68.551111 48.071111 48.071111 0 0 0-68.266667 0L192.625778 204.572444a48.327111 48.327111 0 0 0 0 68.551112z m638.122667 195.697777l-189.354667 189.639112a48.355556 48.355556 0 0 0 0 68.522666 48.099556 48.099556 0 0 0 68.266667 0l189.326222-189.639111a48.355556 48.355556 0 0 0 0-68.522667 48.014222 48.014222 0 0 0-68.266667 0z m181.532444 543.573334a101.233778 101.233778 0 0 0-101.376-101.376h-372.906666a101.518222 101.518222 0 0 0-101.432889 101.376h575.715555z" fill="#cdcdcd" p-id="5445"></path></svg>